<?xml version="1.0" encoding="utf-8"?>
<!-- Generator: Adobe Illustrator 21.1.0, SVG Export Plug-In . SVG Version: 6.00 Build 0)  -->
<svg version="1.1" id="Layer_1" xmlns="http://www.w3.org/2000/svg" xmlns:xlink="http://www.w3.org/1999/xlink" x="0px" y="0px"
	 viewBox="0 0 612 792" style="enable-background:new 0 0 612 792;" xml:space="preserve">
<style type="text/css">
	.st0{fill:#00749C;}
	.st1{fill:#FFFFFF;}
</style>
<g>
	<path class="st0" d="M114.3,341.3c33.2-53,115.4-81.8,240.4-63.6c48.3,7,87.2,25.9,115,51.6c31.4,25.9,51.5,65.1,51.5,109
		c0,75.2-58.8,136.6-132.9,140.9c-2,0.2-3.8,0.4-5.6,0.6c-15.4,1.3-15,4-12.6,11.8c2.4,7.8,7.3,16.6-0.9,18.1
		c-8.7,1.6-30.8,5.1-38.2-9c-7.4-14.1-16.6-30.9-22.6-40.8c-7.8-4.6-15-9.9-21.8-15.8c-0.5,0.1-1.1,0.3-1.6,0.5
		c-7.5,2.6-31.2,7.8-51.6-2.8c-35.7-18.5-36.4-55.4-36-59.8c0.8-8.2-5.4-9.9-9.8-9.9c-4.4,0-35.6,6.9-62.9-20.9
		C97.3,423.4,90.2,379.7,114.3,341.3L114.3,341.3z"/>
	<path class="st1" d="M377.7,309.6c70.4,0,127.5,57.1,127.5,127.5c0,70.4-57.1,127.5-127.5,127.5s-127.5-57.1-127.5-127.5
		C250.2,366.7,307.2,309.6,377.7,309.6L377.7,309.6z M434.8,538c35.1-19.9,58.8-57.7,58.8-100.9c0-19.5-4.8-37.8-13.3-53.9
		c0.2,3.7,0,7.7-0.5,12c-2.2,20.2-10.3,41.3-13.5,51.6C463.8,455.4,441.7,518.4,434.8,538L434.8,538z M344,548.1
		c10.7,3.2,22,5,33.7,5c13.1,0,25.6-2.2,37.3-6.1L379.6,449L344,548.1L344,548.1z M271,391.5c-6,14-9.3,29.4-9.3,45.6
		c0,46.5,27.4,86.6,66.9,105.1l-55-150.9L271,391.5L271,391.5z M377.7,321.1c-40.7,0-76.4,20.9-97.1,52.6h33.4
		c7.4,0,9.6,0.6,9.6,3.8c0,3.2-3.8,4.2-6.1,4.2h-11.9l43.3,125.6l25.6-73.7l-18.9-51.3c0,0-8.3,0.3-11.5-0.3c-3.2-0.6-6.4-9-1-9.3
		c5.4-0.3,23.7-0.3,37.5-0.3c13.8,0,19.2,0,24.3-0.3c5.1-0.3,7.7,9.3,1,9.6c-6.7,0.3-13.5,1.3-13.5,1.3l41,123
		c0,0,16.3-54.1,20.2-66.6c3.8-12.5-1.9-31.7-9.9-44.2c-8-12.5-13.1-25.6-5.4-35.9c4.3-5.7,10.9-8.2,17.2-8.2
		C434.9,332.5,407.6,321.1,377.7,321.1L377.7,321.1z"/>
</g>
</svg>
